<svg xmlns="http://www.w3.org/2000/svg" viewBox="0 0 96 96" role="img" aria-label="Peripheral">
  <defs>
    <linearGradient id="bg" x1="9" y1="10" x2="86" y2="86" gradientUnits="userSpaceOnUse">
      <stop stop-color="#ffe3f1"/>
      <stop offset="1" stop-color="#eef4ff"/>
    </linearGradient>
  </defs>
  <rect width="96" height="96" rx="20" fill="url(#bg)"/>
  <rect x="16" y="34" width="52" height="30" rx="8" fill="#12263f"/>
  <g fill="#8dd8ff">
    <rect x="23" y="41" width="6" height="5" rx="1.5"/>
    <rect x="33" y="41" width="6" height="5" rx="1.5"/>
    <rect x="43" y="41" width="6" height="5" rx="1.5"/>
    <rect x="53" y="41" width="8" height="5" rx="1.5"/>
    <rect x="23" y="50" width="8" height="5" rx="1.5"/>
    <rect x="35" y="50" width="17" height="5" rx="1.5"/>
    <rect x="56" y="50" width="5" height="5" rx="1.5"/>
  </g>
  <path d="M72 35c8 0 12 7 12 17v4c0 9-5 15-12 15s-12-6-12-15v-4c0-10 4-17 12-17Z" fill="#2f7bff"/>
  <path d="M72 39v12" stroke="#bff6ff" stroke-width="3" stroke-linecap="round"/>
</svg>
